<mxfile modified="2022-05-20T02:22:24.350Z" host="app.diagrams.net" agent="5.0 (Windows NT 10.0; Win64; x64) AppleWebKit/537.36 (KHTML, like Gecko) Chrome/101.0.4951.54 Safari/537.36" etag="HMZ1b7xD3rd4u1T1Jqvl" compressed="false" version="18.0.8" type="google">
  <diagram name="Integration/System Logical Module/API/Resource URLs/DataCategories" id="3DYxPtSVvZqAexdu3m4g">
    <mxGraphModel grid="1" page="1" gridSize="10" guides="1" tooltips="1" connect="1" arrows="1" fold="1" pageScale="1" pageWidth="850" pageHeight="1100" math="0" shadow="0">
      <root>
        <mxCell id="5eiTxqKGXpUTvo_S0BBR-0" />
        <mxCell id="5eiTxqKGXpUTvo_S0BBR-1" parent="5eiTxqKGXpUTvo_S0BBR-0" />
        <mxCell id="5eiTxqKGXpUTvo_S0BBR-26" value="List DataCategories (within current Tenancy)" style="text;html=1;strokeColor=none;fillColor=none;align=left;verticalAlign=middle;whiteSpace=wrap;rounded=0;dashed=1;fontFamily=Helvetica;fontSize=12;" vertex="1" parent="5eiTxqKGXpUTvo_S0BBR-1">
          <mxGeometry x="403" y="300" width="320" height="20" as="geometry" />
        </mxCell>
        <mxCell id="5eiTxqKGXpUTvo_S0BBR-27" value="DataCategories" style="text;html=1;strokeColor=none;fillColor=none;align=left;verticalAlign=middle;whiteSpace=wrap;rounded=0;dashed=1;fontSize=12;fontFamily=Courier New;" vertex="1" parent="5eiTxqKGXpUTvo_S0BBR-1">
          <mxGeometry x="163" y="300" width="240" height="20" as="geometry" />
        </mxCell>
        <mxCell id="5eiTxqKGXpUTvo_S0BBR-28" value="DataCategories/{uuid}" style="text;html=1;strokeColor=none;fillColor=none;align=left;verticalAlign=middle;whiteSpace=wrap;rounded=0;dashed=1;fontSize=12;fontFamily=Courier New;" vertex="1" parent="5eiTxqKGXpUTvo_S0BBR-1">
          <mxGeometry x="163" y="380" width="240" height="20" as="geometry" />
        </mxCell>
        <mxCell id="5eiTxqKGXpUTvo_S0BBR-29" value="View DataCategory {uuid}. Using common non-standard notation." style="text;html=1;strokeColor=none;fillColor=none;align=left;verticalAlign=middle;whiteSpace=wrap;rounded=0;dashed=1;fontFamily=Helvetica;fontSize=10;" vertex="1" parent="5eiTxqKGXpUTvo_S0BBR-1">
          <mxGeometry x="403" y="380" width="320" height="20" as="geometry" />
        </mxCell>
        <mxCell id="5eiTxqKGXpUTvo_S0BBR-30" value="GET" style="text;html=1;strokeColor=none;fillColor=none;align=left;verticalAlign=middle;whiteSpace=wrap;rounded=0;dashed=1;fontSize=12;fontFamily=Courier New;" vertex="1" parent="5eiTxqKGXpUTvo_S0BBR-1">
          <mxGeometry x="123" y="300" width="40" height="20" as="geometry" />
        </mxCell>
        <mxCell id="5eiTxqKGXpUTvo_S0BBR-31" value="GET" style="text;html=1;strokeColor=none;fillColor=none;align=left;verticalAlign=middle;whiteSpace=wrap;rounded=0;dashed=1;fontSize=12;fontFamily=Courier New;" vertex="1" parent="5eiTxqKGXpUTvo_S0BBR-1">
          <mxGeometry x="123" y="380" width="40" height="20" as="geometry" />
        </mxCell>
        <mxCell id="5eiTxqKGXpUTvo_S0BBR-32" value="POST" style="text;html=1;strokeColor=none;fillColor=none;align=left;verticalAlign=middle;whiteSpace=wrap;rounded=0;dashed=1;fontSize=12;fontFamily=Courier New;" vertex="1" parent="5eiTxqKGXpUTvo_S0BBR-1">
          <mxGeometry x="123" y="440" width="40" height="20" as="geometry" />
        </mxCell>
        <mxCell id="5eiTxqKGXpUTvo_S0BBR-33" value="DataCategories" style="text;html=1;strokeColor=none;fillColor=none;align=left;verticalAlign=middle;whiteSpace=wrap;rounded=0;dashed=1;fontSize=12;fontFamily=Courier New;" vertex="1" parent="5eiTxqKGXpUTvo_S0BBR-1">
          <mxGeometry x="163" y="440" width="240" height="20" as="geometry" />
        </mxCell>
        <mxCell id="5eiTxqKGXpUTvo_S0BBR-34" value="POST" style="text;html=1;strokeColor=none;fillColor=none;align=left;verticalAlign=middle;whiteSpace=wrap;rounded=0;dashed=1;fontSize=12;fontFamily=Courier New;" vertex="1" parent="5eiTxqKGXpUTvo_S0BBR-1">
          <mxGeometry x="123" y="460" width="40" height="20" as="geometry" />
        </mxCell>
        <mxCell id="5eiTxqKGXpUTvo_S0BBR-35" value="DataCategories(&#39;{uuid}&#39;)" style="text;html=1;strokeColor=none;fillColor=none;align=left;verticalAlign=middle;whiteSpace=wrap;rounded=0;dashed=1;fontSize=12;fontFamily=Courier New;" vertex="1" parent="5eiTxqKGXpUTvo_S0BBR-1">
          <mxGeometry x="163" y="460" width="240" height="20" as="geometry" />
        </mxCell>
        <mxCell id="5eiTxqKGXpUTvo_S0BBR-36" value="Create&amp;nbsp;&lt;span style=&quot;font-size: 10px;&quot;&gt;DataCategory&lt;/span&gt;, server side generated Id. &lt;b style=&quot;font-size: 10px;&quot;&gt;&lt;font color=&quot;#cc0000&quot; style=&quot;font-size: 10px;&quot;&gt;&lt;u style=&quot;font-size: 10px;&quot;&gt;NOT&lt;/u&gt;&lt;/font&gt; &lt;/b&gt;recommended." style="text;html=1;strokeColor=none;fillColor=none;align=left;verticalAlign=middle;whiteSpace=wrap;rounded=0;dashed=1;fontFamily=Helvetica;fontSize=10;" vertex="1" parent="5eiTxqKGXpUTvo_S0BBR-1">
          <mxGeometry x="403" y="440" width="320" height="20" as="geometry" />
        </mxCell>
        <mxCell id="5eiTxqKGXpUTvo_S0BBR-37" value="Create&amp;nbsp;&lt;span style=&quot;font-size: 10px;&quot;&gt;DataCategory&lt;/span&gt;, client side generated UUID. &lt;font color=&quot;#009900&quot; style=&quot;font-size: 10px;&quot;&gt;&lt;b style=&quot;font-size: 10px;&quot;&gt;RECOMMENDED&lt;/b&gt;&lt;/font&gt;." style="text;html=1;strokeColor=none;fillColor=none;align=left;verticalAlign=middle;whiteSpace=wrap;rounded=0;dashed=1;fontFamily=Helvetica;fontSize=10;" vertex="1" parent="5eiTxqKGXpUTvo_S0BBR-1">
          <mxGeometry x="403" y="460" width="320" height="20" as="geometry" />
        </mxCell>
        <mxCell id="5eiTxqKGXpUTvo_S0BBR-38" value="PUT" style="text;html=1;strokeColor=none;fillColor=none;align=left;verticalAlign=middle;whiteSpace=wrap;rounded=0;dashed=1;fontSize=12;fontFamily=Courier New;" vertex="1" parent="5eiTxqKGXpUTvo_S0BBR-1">
          <mxGeometry x="123" y="420" width="40" height="20" as="geometry" />
        </mxCell>
        <mxCell id="5eiTxqKGXpUTvo_S0BBR-39" value="DataCategories(&#39;{uuid}&#39;)" style="text;html=1;strokeColor=none;fillColor=none;align=left;verticalAlign=middle;whiteSpace=wrap;rounded=0;dashed=1;fontSize=12;fontFamily=Courier New;" vertex="1" parent="5eiTxqKGXpUTvo_S0BBR-1">
          <mxGeometry x="163" y="420" width="240" height="20" as="geometry" />
        </mxCell>
        <mxCell id="5eiTxqKGXpUTvo_S0BBR-40" value="Edit DataCategory {uuid}. Using ODATA Standard notation." style="text;html=1;strokeColor=none;fillColor=none;align=left;verticalAlign=middle;whiteSpace=wrap;rounded=0;dashed=1;fontFamily=Helvetica;fontSize=12;" vertex="1" parent="5eiTxqKGXpUTvo_S0BBR-1">
          <mxGeometry x="403" y="420" width="320" height="20" as="geometry" />
        </mxCell>
        <mxCell id="5eiTxqKGXpUTvo_S0BBR-41" value="DELETE" style="text;html=1;strokeColor=none;fillColor=none;align=left;verticalAlign=middle;whiteSpace=wrap;rounded=0;dashed=1;fontSize=10;fontFamily=Courier New;" vertex="1" parent="5eiTxqKGXpUTvo_S0BBR-1">
          <mxGeometry x="123" y="480" width="40" height="20" as="geometry" />
        </mxCell>
        <mxCell id="5eiTxqKGXpUTvo_S0BBR-42" value="DataCategories(&#39;{uuid}&#39;)" style="text;html=1;strokeColor=none;fillColor=none;align=left;verticalAlign=middle;whiteSpace=wrap;rounded=0;dashed=1;fontSize=12;fontFamily=Courier New;" vertex="1" parent="5eiTxqKGXpUTvo_S0BBR-1">
          <mxGeometry x="163" y="480" width="240" height="20" as="geometry" />
        </mxCell>
        <mxCell id="5eiTxqKGXpUTvo_S0BBR-43" value="Delete DataCategory {uuid}" style="text;html=1;strokeColor=none;fillColor=none;align=left;verticalAlign=middle;whiteSpace=wrap;rounded=0;dashed=1;fontFamily=Helvetica;fontSize=12;" vertex="1" parent="5eiTxqKGXpUTvo_S0BBR-1">
          <mxGeometry x="403" y="480" width="320" height="20" as="geometry" />
        </mxCell>
        <mxCell id="5eiTxqKGXpUTvo_S0BBR-45" value="&lt;font style=&quot;font-size: 10px;&quot;&gt;List DataCategories, page 3, using ODATA standard filter arguments.&lt;/font&gt;" style="text;html=1;strokeColor=none;fillColor=none;align=left;verticalAlign=middle;whiteSpace=wrap;rounded=0;dashed=1;fontFamily=Helvetica;fontSize=10;" vertex="1" parent="5eiTxqKGXpUTvo_S0BBR-1">
          <mxGeometry x="403" y="340" width="320" height="20" as="geometry" />
        </mxCell>
        <mxCell id="5eiTxqKGXpUTvo_S0BBR-46" value="&lt;font style=&quot;font-size: 12px&quot;&gt;&lt;span&gt;DataCategories&lt;/span&gt;?$top=80&amp;amp;$skip=60&lt;/font&gt;" style="text;html=1;strokeColor=none;fillColor=none;align=left;verticalAlign=middle;whiteSpace=wrap;rounded=0;dashed=1;fontSize=12;fontFamily=Courier New;" vertex="1" parent="5eiTxqKGXpUTvo_S0BBR-1">
          <mxGeometry x="163" y="340" width="280" height="20" as="geometry" />
        </mxCell>
        <mxCell id="5eiTxqKGXpUTvo_S0BBR-47" value="GET" style="text;html=1;strokeColor=none;fillColor=none;align=left;verticalAlign=middle;whiteSpace=wrap;rounded=0;dashed=1;fontSize=12;fontFamily=Courier New;" vertex="1" parent="5eiTxqKGXpUTvo_S0BBR-1">
          <mxGeometry x="123" y="340" width="40" height="20" as="geometry" />
        </mxCell>
        <mxCell id="5eiTxqKGXpUTvo_S0BBR-48" value="Count DataCategories, using ODATA standard filter arguments." style="text;html=1;strokeColor=none;fillColor=none;align=left;verticalAlign=middle;whiteSpace=wrap;rounded=0;dashed=1;fontFamily=Helvetica;fontSize=11;" vertex="1" parent="5eiTxqKGXpUTvo_S0BBR-1">
          <mxGeometry x="403" y="320" width="320" height="20" as="geometry" />
        </mxCell>
        <mxCell id="5eiTxqKGXpUTvo_S0BBR-49" value="GET" style="text;html=1;strokeColor=none;fillColor=none;align=left;verticalAlign=middle;whiteSpace=wrap;rounded=0;dashed=1;fontSize=12;fontFamily=Courier New;" vertex="1" parent="5eiTxqKGXpUTvo_S0BBR-1">
          <mxGeometry x="123" y="320" width="40" height="20" as="geometry" />
        </mxCell>
        <mxCell id="5eiTxqKGXpUTvo_S0BBR-61" value="List DataCategories meeting custom search constraints." style="text;html=1;strokeColor=none;fillColor=none;align=left;verticalAlign=middle;whiteSpace=wrap;rounded=0;dashed=1;fontFamily=Helvetica;fontSize=12;" vertex="1" parent="5eiTxqKGXpUTvo_S0BBR-1">
          <mxGeometry x="403" y="360" width="320" height="20" as="geometry" />
        </mxCell>
        <mxCell id="5eiTxqKGXpUTvo_S0BBR-62" value="DataCategories$search=xyz" style="text;html=1;strokeColor=none;fillColor=none;align=left;verticalAlign=middle;whiteSpace=wrap;rounded=0;dashed=1;fontSize=12;fontFamily=Courier New;" vertex="1" parent="5eiTxqKGXpUTvo_S0BBR-1">
          <mxGeometry x="163" y="360" width="240" height="20" as="geometry" />
        </mxCell>
        <mxCell id="5eiTxqKGXpUTvo_S0BBR-63" value="GET" style="text;html=1;strokeColor=none;fillColor=none;align=left;verticalAlign=middle;whiteSpace=wrap;rounded=0;dashed=1;fontSize=12;fontFamily=Courier New;" vertex="1" parent="5eiTxqKGXpUTvo_S0BBR-1">
          <mxGeometry x="123" y="360" width="40" height="20" as="geometry" />
        </mxCell>
        <mxCell id="5eiTxqKGXpUTvo_S0BBR-64" value="DataCategories?$count=true" style="text;html=1;strokeColor=none;fillColor=none;align=left;verticalAlign=middle;whiteSpace=wrap;rounded=0;dashed=1;fontSize=12;fontFamily=Courier New;" vertex="1" parent="5eiTxqKGXpUTvo_S0BBR-1">
          <mxGeometry x="163" y="320" width="240" height="20" as="geometry" />
        </mxCell>
        <mxCell id="5eiTxqKGXpUTvo_S0BBR-65" value="Description" style="text;html=1;strokeColor=none;fillColor=#f5f5f5;align=left;verticalAlign=middle;whiteSpace=wrap;rounded=0;fontSize=12;fontFamily=Helvetica;fontColor=#333333;fontStyle=0" vertex="1" parent="5eiTxqKGXpUTvo_S0BBR-1">
          <mxGeometry x="400" y="200" width="320" height="20" as="geometry" />
        </mxCell>
        <mxCell id="5eiTxqKGXpUTvo_S0BBR-66" value="URL" style="text;html=1;strokeColor=none;fillColor=#f5f5f5;align=left;verticalAlign=middle;whiteSpace=wrap;rounded=0;fontSize=12;fontFamily=Helvetica;fontColor=#333333;fontStyle=0" vertex="1" parent="5eiTxqKGXpUTvo_S0BBR-1">
          <mxGeometry x="160" y="200" width="230" height="20" as="geometry" />
        </mxCell>
        <mxCell id="5eiTxqKGXpUTvo_S0BBR-67" value="&lt;font style=&quot;font-size: 10px;&quot;&gt;VERB&lt;/font&gt;" style="text;html=1;strokeColor=none;fillColor=#f5f5f5;align=left;verticalAlign=middle;whiteSpace=wrap;rounded=0;fontSize=10;fontFamily=Helvetica;fontColor=#333333;fontStyle=0" vertex="1" parent="5eiTxqKGXpUTvo_S0BBR-1">
          <mxGeometry x="120" y="200" width="30" height="20" as="geometry" />
        </mxCell>
        <mxCell id="5eiTxqKGXpUTvo_S0BBR-68" value="List DataCategories (within current Tenancy)" style="text;html=1;strokeColor=none;fillColor=none;align=left;verticalAlign=middle;whiteSpace=wrap;rounded=0;dashed=1;fontFamily=Helvetica;fontSize=12;" vertex="1" parent="5eiTxqKGXpUTvo_S0BBR-1">
          <mxGeometry x="403" y="300" width="320" height="20" as="geometry" />
        </mxCell>
        <mxCell id="5eiTxqKGXpUTvo_S0BBR-69" value="&lt;font style=&quot;font-size: 9px&quot;&gt;&lt;span style=&quot;font-size: 10px&quot;&gt;SummaryItems&lt;/span&gt;?$search=DataCategory,abc:xyz&lt;/font&gt;" style="text;html=1;strokeColor=none;fillColor=none;align=left;verticalAlign=middle;whiteSpace=wrap;rounded=0;dashed=1;fontSize=9;fontFamily=Courier New;" vertex="1" parent="5eiTxqKGXpUTvo_S0BBR-1">
          <mxGeometry x="163" y="260" width="250" height="20" as="geometry" />
        </mxCell>
        <mxCell id="5eiTxqKGXpUTvo_S0BBR-70" value="GET" style="text;html=1;strokeColor=none;fillColor=none;align=left;verticalAlign=middle;whiteSpace=wrap;rounded=0;dashed=1;fontSize=12;fontFamily=Courier New;" vertex="1" parent="5eiTxqKGXpUTvo_S0BBR-1">
          <mxGeometry x="123" y="260" width="40" height="20" as="geometry" />
        </mxCell>
        <mxCell id="5eiTxqKGXpUTvo_S0BBR-71" value="&lt;font style=&quot;font-size: 10px&quot;&gt;SummaryItems?$search=DataCategory:xyz&lt;/font&gt;" style="text;html=1;strokeColor=none;fillColor=none;align=left;verticalAlign=middle;whiteSpace=wrap;rounded=0;dashed=1;fontSize=10;fontFamily=Courier New;" vertex="1" parent="5eiTxqKGXpUTvo_S0BBR-1">
          <mxGeometry x="163" y="240" width="240" height="20" as="geometry" />
        </mxCell>
        <mxCell id="5eiTxqKGXpUTvo_S0BBR-72" value="GET" style="text;html=1;strokeColor=none;fillColor=none;align=left;verticalAlign=middle;whiteSpace=wrap;rounded=0;dashed=1;fontSize=12;fontFamily=Courier New;" vertex="1" parent="5eiTxqKGXpUTvo_S0BBR-1">
          <mxGeometry x="123" y="240" width="40" height="20" as="geometry" />
        </mxCell>
        <mxCell id="5eiTxqKGXpUTvo_S0BBR-73" value="&lt;font style=&quot;font-size: 11px&quot;&gt;List SummaryItems of type DataCategory custom matching xyz&lt;/font&gt;" style="text;html=1;strokeColor=none;fillColor=none;align=left;verticalAlign=middle;whiteSpace=wrap;rounded=0;dashed=1;fontFamily=Helvetica;fontSize=12;" vertex="1" parent="5eiTxqKGXpUTvo_S0BBR-1">
          <mxGeometry x="403" y="240" width="320" height="20" as="geometry" />
        </mxCell>
        <mxCell id="5eiTxqKGXpUTvo_S0BBR-74" value="&lt;font style=&quot;font-size: 10px&quot;&gt;List SummaryItems of type DataCategory &amp;amp; abc custom matching xyz&lt;/font&gt;" style="text;html=1;strokeColor=none;fillColor=none;align=left;verticalAlign=middle;whiteSpace=wrap;rounded=0;dashed=1;fontFamily=Helvetica;fontSize=12;" vertex="1" parent="5eiTxqKGXpUTvo_S0BBR-1">
          <mxGeometry x="403" y="260" width="320" height="20" as="geometry" />
        </mxCell>
        <mxCell id="NQVz9COtShnoyW3XNyq8-0" value="&lt;font style=&quot;font-size: 12px ; font-weight: normal&quot;&gt;&lt;i&gt;Diagram: Base System Logical Module -&amp;nbsp;&lt;/i&gt;&lt;i&gt;Interoperability&amp;nbsp;&lt;/i&gt;&lt;i&gt;- APIs - DataCategory&lt;/i&gt;&lt;/font&gt;" style="text;strokeColor=none;fillColor=none;html=1;fontSize=12;fontStyle=1;verticalAlign=middle;align=left;shadow=0;glass=0;comic=0;opacity=30;fontColor=#808080;" vertex="1" parent="5eiTxqKGXpUTvo_S0BBR-1">
          <mxGeometry x="120" y="520" width="560" height="20" as="geometry" />
        </mxCell>
        <mxCell id="5eiTxqKGXpUTvo_S0BBR-86" value="Diagram" parent="5eiTxqKGXpUTvo_S0BBR-0" />
        <mxCell id="5eiTxqKGXpUTvo_S0BBR-87" value="Context/Legend" parent="5eiTxqKGXpUTvo_S0BBR-0" />
        <mxCell id="5eiTxqKGXpUTvo_S0BBR-88" value="Title/Diagram" parent="5eiTxqKGXpUTvo_S0BBR-0" />
        <mxCell id="5eiTxqKGXpUTvo_S0BBR-89" value="Title/Page" visible="0" parent="5eiTxqKGXpUTvo_S0BBR-0" />
        <mxCell id="5eiTxqKGXpUTvo_S0BBR-90" value="" style="group;fontSize=12;" vertex="1" connectable="0" parent="5eiTxqKGXpUTvo_S0BBR-89">
          <mxGeometry x="120" y="120" width="600" height="45" as="geometry" />
        </mxCell>
        <mxCell id="5eiTxqKGXpUTvo_S0BBR-91" value="&lt;font style=&quot;font-size: 12px&quot;&gt;Base Logical Module - Interoperability&amp;nbsp;- APIs - DataCategory&lt;/font&gt;" style="text;strokeColor=none;fillColor=none;html=1;fontSize=12;fontStyle=1;verticalAlign=middle;align=left;shadow=0;glass=0;comic=0;opacity=30;fontColor=#808080;" vertex="1" parent="5eiTxqKGXpUTvo_S0BBR-90">
          <mxGeometry y="20" width="600" height="20" as="geometry" />
        </mxCell>
        <mxCell id="5eiTxqKGXpUTvo_S0BBR-92" value="" style="line;strokeWidth=2;html=1;shadow=0;glass=0;comic=0;fillColor=none;fontSize=10;fontColor=#CCCCCC;labelBackgroundColor=none;strokeColor=#CCCCCC;" vertex="1" parent="5eiTxqKGXpUTvo_S0BBR-90">
          <mxGeometry y="35" width="600" height="10" as="geometry" />
        </mxCell>
        <mxCell id="5eiTxqKGXpUTvo_S0BBR-93" value="About" parent="5eiTxqKGXpUTvo_S0BBR-0" />
      </root>
    </mxGraphModel>
  </diagram>
</mxfile>
